<svg xmlns="http://www.w3.org/2000/svg" viewBox="0 0 120 72" width="120" height="72">
<!-- the Los mark — quarter-block badge art as rects, phosphor amber -->
<g fill="#e3a818" shape-rendering="crispEdges">
<rect x="5" y="9" width="5" height="9"/>
<rect x="10" y="9" width="5" height="9"/>
<rect x="30" y="9" width="5" height="9"/>
<rect x="35" y="9" width="5" height="9"/>
<rect x="40" y="9" width="5" height="9"/>
<rect x="45" y="9" width="5" height="9"/>
<rect x="50" y="9" width="5" height="9"/>
<rect x="55" y="9" width="5" height="9"/>
<rect x="90" y="9" width="5" height="9"/>
<rect x="95" y="9" width="5" height="9"/>
<rect x="100" y="9" width="5" height="9"/>
<rect x="105" y="9" width="5" height="9"/>
<rect x="110" y="9" width="5" height="9"/>
<rect x="115" y="9" width="5" height="9"/>
<rect x="5" y="18" width="5" height="9"/>
<rect x="5" y="27" width="5" height="9"/>
<rect x="10" y="18" width="5" height="9"/>
<rect x="10" y="27" width="5" height="9"/>
<rect x="20" y="18" width="5" height="9"/>
<rect x="25" y="18" width="5" height="9"/>
<rect x="20" y="27" width="5" height="9"/>
<rect x="25" y="27" width="5" height="9"/>
<rect x="60" y="18" width="5" height="9"/>
<rect x="65" y="18" width="5" height="9"/>
<rect x="60" y="27" width="5" height="9"/>
<rect x="65" y="27" width="5" height="9"/>
<rect x="80" y="18" width="5" height="9"/>
<rect x="85" y="18" width="5" height="9"/>
<rect x="90" y="27" width="5" height="9"/>
<rect x="95" y="27" width="5" height="9"/>
<rect x="100" y="27" width="5" height="9"/>
<rect x="105" y="27" width="5" height="9"/>
<rect x="5" y="36" width="5" height="9"/>
<rect x="5" y="45" width="5" height="9"/>
<rect x="10" y="36" width="5" height="9"/>
<rect x="10" y="45" width="5" height="9"/>
<rect x="20" y="36" width="5" height="9"/>
<rect x="25" y="36" width="5" height="9"/>
<rect x="30" y="45" width="5" height="9"/>
<rect x="35" y="45" width="5" height="9"/>
<rect x="40" y="45" width="5" height="9"/>
<rect x="45" y="45" width="5" height="9"/>
<rect x="50" y="45" width="5" height="9"/>
<rect x="55" y="45" width="5" height="9"/>
<rect x="60" y="36" width="5" height="9"/>
<rect x="65" y="36" width="5" height="9"/>
<rect x="80" y="45" width="5" height="9"/>
<rect x="85" y="45" width="5" height="9"/>
<rect x="90" y="45" width="5" height="9"/>
<rect x="95" y="45" width="5" height="9"/>
<rect x="100" y="45" width="5" height="9"/>
<rect x="105" y="45" width="5" height="9"/>
<rect x="110" y="36" width="5" height="9"/>
<rect x="115" y="36" width="5" height="9"/>
<rect x="5" y="54" width="5" height="9"/>
<rect x="5" y="63" width="5" height="9"/>
<rect x="10" y="54" width="5" height="9"/>
<rect x="10" y="63" width="5" height="9"/>
<rect x="15" y="63" width="5" height="9"/>
<rect x="20" y="63" width="5" height="9"/>
<rect x="25" y="63" width="5" height="9"/>
<rect x="30" y="63" width="5" height="9"/>
<rect x="35" y="63" width="5" height="9"/>
<rect x="40" y="63" width="5" height="9"/>
</g>
</svg>
